<svg width="201" height="194" viewBox="0 0 201 194" fill="none" xmlns="http://www.w3.org/2000/svg">
<path d="M92.9376 0.784323C73.7288 2.29197 56.0393 8.76226 40.6288 19.9439C28.0399 29.0736 17.5565 41.4069 10.7628 55.0176C-1.19658 79.0352 -2.41205 106.403 7.35516 131.342C14.8434 150.439 28.8213 167.023 46.9666 178.309C57.7974 185.052 70.7769 189.91 83.713 192.066C98.798 194.558 113.579 193.783 128.534 189.679C155.535 182.288 178.694 163.4 190.935 138.775C196.948 126.714 200.03 114.842 200.703 101.252C201.831 78.8048 194.755 56.9021 180.474 38.6429C169.339 24.4041 153.299 12.8873 135.805 6.58456C122.261 1.70566 107.285 -0.325469 92.9376 0.784323ZM109.477 22.9592C115.185 23.6293 119.939 24.6553 125.386 26.4142C128.903 27.5659 133.027 29.1992 133.135 29.5133C133.309 30.0158 129.467 37.4703 126.667 42.056C123.78 46.7884 119.765 52.2536 117.616 54.4313C116.01 56.0436 113.514 57.1115 109.542 57.8444C101.685 59.3311 90.6586 58.6192 86.5998 56.3786C84.9719 55.4782 80.9131 50.8297 77.6791 46.1811C74.6187 41.7838 71.949 37.1143 69.9738 32.717C68.3677 29.1364 68.3894 29.2411 69.1056 28.9898C69.4312 28.8642 70.6901 28.3826 71.8839 27.9009C79.3504 24.9694 86.6215 23.378 96.3019 22.5823C98.3205 22.4148 106.937 22.6661 109.477 22.9592ZM59.0129 38.9361C63.9833 45.9089 68.4328 53.8868 70.7986 60.1059C71.6017 62.2417 71.6234 62.3045 71.4932 64.5032C71.4064 66.3877 71.2327 67.1625 70.473 69.4239C67.9119 76.8993 61.7911 85.7567 57.3633 88.416C56.3866 88.9814 51.3944 89.9656 47.2922 90.4053C40.0211 91.1591 29.8197 90.9707 24.5889 89.9656L23.9811 89.8399L24.1331 88.437C24.3935 86.0289 25.3051 81.2338 25.978 78.6582C30.3841 62.1161 40.2164 47.8353 54.2595 37.554C55.5401 36.6118 56.6904 35.8998 56.7772 35.9417C56.8858 36.0045 57.8842 37.3656 59.0129 38.9361ZM150.239 39.8574C152.973 42.0351 157.51 46.4324 159.876 49.1545C166.192 56.4624 171.162 65.1313 174.114 73.9469C175.633 78.5535 176.957 84.4585 177.391 88.6464C177.5 89.9027 177.478 90.0703 177.131 90.175C174.895 90.8031 159.246 91.0754 154.037 90.5519C146.788 89.819 145.116 89.2746 142.229 86.7199C136.608 81.7154 130.4 70.8688 130.01 65.3617C129.858 63.4771 130.183 62.3255 132.05 57.7397C134.785 51.081 139.408 43.2077 143.771 37.8053L145.16 36.0673L146.614 37.0934C147.417 37.6587 149.045 38.9151 150.239 39.8574ZM46.055 102.655C51.7851 103.157 54.9323 103.702 56.4083 104.477C60.4888 106.633 66.284 114.067 69.4312 121.249C70.6467 123.992 71.5583 127.175 71.5583 128.578C71.5583 131.321 67.5212 140.576 63.419 147.256C61.5089 150.355 60.6624 151.59 58.1447 154.836L56.0827 157.495L55.4098 157.056C49.4193 152.993 42.5605 146.293 37.7854 139.843C33.5096 134.022 29.6895 126.672 27.3888 119.825C25.7826 114.988 24.4152 108.811 24.1114 104.854L23.9594 103.116L25.4571 102.948C26.2818 102.864 27.7361 102.739 28.6911 102.655C31.4042 102.425 43.407 102.425 46.055 102.655ZM174.223 103.157C175.829 103.367 177.24 103.597 177.348 103.702C177.717 104.058 176.697 110.507 175.525 115.009C171.379 131.154 161.417 145.686 147.504 156.009L145.181 157.726L144.291 156.574C138.301 148.931 130.574 134.713 130.031 130.4C129.293 124.369 137.563 109.314 143.836 105.251C145.095 104.435 149.653 103.513 155.231 102.969C159.138 102.571 170.251 102.697 174.223 103.157ZM107.415 135.216C112.798 135.886 114.99 136.765 117.16 139.131C122.999 145.434 128.599 154.166 132.093 162.395L132.961 164.426L132.137 164.845C130.791 165.494 127.21 166.834 124.627 167.63C111.647 171.671 98.3856 172.341 84.7983 169.661C79.9147 168.698 74.0761 166.897 69.9738 165.096C68.3894 164.405 68.2809 164.322 68.4111 163.819C68.6281 162.898 72.2963 155.82 74.1629 152.658C78.0481 146.146 83.2572 139.215 85.2975 137.896C87.099 136.723 90.4416 135.739 94.2616 135.237C97.2569 134.839 104.376 134.818 107.415 135.216Z" fill="#FF9D47"/>
</svg>
