<svg width="454" height="90" viewBox="0 0 454 90" fill="none" xmlns="http://www.w3.org/2000/svg">
<path d="M195.63 86.0649C203.227 85.447 210.224 82.7949 216.319 78.2118C221.299 74.4698 225.445 69.4146 228.132 63.8359C232.863 53.9916 233.343 42.7741 229.48 32.5522C226.518 24.7248 220.99 17.9274 213.813 13.3013C209.529 10.5377 204.395 8.54653 199.278 7.66252C193.312 6.64119 187.465 6.95874 181.55 8.64094C170.87 11.6706 161.71 19.4122 156.868 29.5053C154.49 34.4489 153.271 39.3153 153.005 44.8854C152.559 54.086 155.357 63.0634 161.006 70.5475C165.41 76.3837 171.755 81.1041 178.674 83.6875C184.031 85.6873 189.955 86.5198 195.63 86.0649ZM189.088 76.9759C186.83 76.7013 184.95 76.2807 182.795 75.5598C181.404 75.0877 179.773 74.4183 179.73 74.2895C179.661 74.0836 181.181 71.0281 182.289 69.1485C183.43 67.2089 185.019 64.9688 185.868 64.0762C186.504 63.4153 187.491 62.9776 189.062 62.6772C192.17 62.0679 196.531 62.3597 198.136 63.278C198.78 63.6471 200.386 65.5524 201.665 67.4578C202.875 69.2601 203.931 71.174 204.713 72.9764C205.348 74.444 205.339 74.4011 205.056 74.5041C204.927 74.5556 204.429 74.753 203.957 74.9504C201.004 76.152 198.128 76.8042 194.299 77.1304C193.501 77.199 190.092 77.0961 189.088 76.9759ZM209.048 70.4273C207.082 67.5693 205.322 64.2993 204.386 61.7503C204.069 60.8749 204.06 60.8491 204.112 59.9479C204.146 59.1755 204.215 58.858 204.515 57.931C205.528 54.867 207.949 51.2366 209.7 50.1466C210.087 49.9148 212.061 49.5115 213.684 49.3312C216.56 49.0222 220.595 49.0995 222.664 49.5115L222.904 49.563L222.844 50.138C222.741 51.125 222.38 53.0904 222.114 54.1461C220.372 60.9264 216.483 66.7797 210.928 70.9938C210.422 71.38 209.967 71.6718 209.932 71.6547C209.889 71.6289 209.494 71.071 209.048 70.4273ZM172.965 70.0497C171.883 69.1571 170.089 67.3548 169.153 66.239C166.655 63.2437 164.689 59.6905 163.522 56.0772C162.921 54.189 162.397 51.7687 162.225 50.0522C162.182 49.5372 162.191 49.4685 162.328 49.4256C163.213 49.1682 169.402 49.0566 171.463 49.2711C174.33 49.5715 174.991 49.7947 176.133 50.8418C178.357 52.893 180.812 57.3388 180.966 59.5961C181.027 60.3685 180.898 60.8405 180.159 62.7201C179.078 65.4494 177.249 68.6765 175.524 70.8908L174.974 71.6032L174.399 71.1826C174.081 70.9509 173.437 70.4359 172.965 70.0497ZM214.173 44.3104C211.907 44.1044 210.662 43.8812 210.078 43.5637C208.464 42.6797 206.172 39.6328 204.927 36.689C204.446 35.5647 204.086 34.2601 204.086 33.6851C204.086 32.5608 205.683 28.7672 207.305 26.0294C208.061 24.7591 208.395 24.2528 209.391 22.9224L210.207 21.8325L210.473 22.0127C212.843 23.6777 215.555 26.4242 217.444 29.0676C219.135 31.4536 220.646 34.4661 221.556 37.2726C222.192 39.2552 222.732 41.7871 222.853 43.4092L222.913 44.1216L222.32 44.1902C221.994 44.2246 221.419 44.2761 221.041 44.3104C219.968 44.4048 215.221 44.4048 214.173 44.3104ZM163.479 44.1044C162.843 44.0186 162.285 43.9242 162.243 43.8812C162.097 43.7353 162.5 41.0919 162.964 39.2466C164.603 32.6294 168.544 26.6731 174.047 22.4418L174.966 21.738L175.317 22.2101C177.687 25.3428 180.743 31.1704 180.958 32.9384C181.25 35.4102 177.979 41.5811 175.498 43.2461C175 43.5809 173.197 43.9585 170.991 44.1816C169.445 44.3447 165.05 44.2932 163.479 44.1044ZM189.903 30.9644C187.774 30.6897 186.907 30.3293 186.049 29.3594C183.739 26.7761 181.524 23.1971 180.142 19.8241L179.799 18.9916L180.125 18.8199C180.657 18.5539 182.074 18.0046 183.095 17.6785C188.229 16.022 193.475 15.7474 198.849 16.8459C200.781 17.2407 203.09 17.9789 204.713 18.717C205.339 19.0002 205.382 19.0345 205.331 19.2405C205.245 19.6181 203.794 22.5191 203.056 23.815C201.519 26.4842 199.459 29.3251 198.652 29.8658C197.939 30.3464 196.617 30.7498 195.106 30.9558C193.921 31.1189 191.105 31.1275 189.903 30.9644Z" fill="#B37D4E"/>
<path d="M107.63 86.0649C115.227 85.447 122.224 82.7949 128.319 78.2118C133.299 74.4698 137.445 69.4146 140.132 63.8359C144.863 53.9916 145.343 42.7741 141.48 32.5522C138.518 24.7248 132.99 17.9274 125.813 13.3013C121.529 10.5377 116.395 8.54653 111.278 7.66252C105.312 6.64119 99.4653 6.95874 93.5502 8.64094C82.8705 11.6706 73.7103 19.4122 68.8683 29.5053C66.4903 34.4489 65.2712 39.3153 65.0051 44.8854C64.5587 54.086 67.3574 63.0634 73.0063 70.5475C77.4104 76.3837 83.7547 81.1041 90.6742 83.6875C96.0313 85.6873 101.955 86.5198 107.63 86.0649ZM101.088 76.9759C98.83 76.7013 96.9499 76.2807 94.795 75.5598C93.4042 75.0877 91.7731 74.4183 91.7302 74.2895C91.6615 74.0836 93.181 71.0281 94.2885 69.1485C95.4303 67.2089 97.0185 64.9688 97.8684 64.0762C98.5037 63.4153 99.491 62.9776 101.062 62.6772C104.17 62.0679 108.531 62.3597 110.136 63.278C110.78 63.6471 112.386 65.5524 113.665 67.4578C114.875 69.2601 115.931 71.174 116.713 72.9764C117.348 74.444 117.339 74.4011 117.056 74.5041C116.927 74.5556 116.429 74.753 115.957 74.9504C113.004 76.152 110.128 76.8042 106.299 77.1304C105.501 77.199 102.092 77.0961 101.088 76.9759ZM121.048 70.4273C119.082 67.5693 117.322 64.2993 116.386 61.7503C116.069 60.8749 116.06 60.8491 116.112 59.9479C116.146 59.1755 116.215 58.858 116.515 57.931C117.528 54.867 119.949 51.2366 121.7 50.1466C122.087 49.9148 124.061 49.5115 125.684 49.3312C128.56 49.0222 132.595 49.0995 134.664 49.5115L134.904 49.563L134.844 50.138C134.741 51.125 134.38 53.0904 134.114 54.1461C132.372 60.9264 128.483 66.7797 122.928 70.9938C122.422 71.38 121.967 71.6718 121.932 71.6547C121.889 71.6289 121.494 71.071 121.048 70.4273ZM84.9652 70.0497C83.8835 69.1571 82.0892 67.3548 81.1535 66.239C78.6552 63.2437 76.6893 59.6905 75.5217 56.0772C74.9207 54.189 74.3971 51.7687 74.2254 50.0522C74.1824 49.5372 74.191 49.4685 74.3284 49.4256C75.2126 49.1682 81.4024 49.0566 83.4628 49.2711C86.3302 49.5715 86.9913 49.7947 88.1331 50.8418C90.3566 52.893 92.8119 57.3388 92.9664 59.5961C93.0265 60.3685 92.8977 60.8405 92.1594 62.7201C91.0777 65.4494 89.2491 68.6765 87.5235 70.8908L86.9741 71.6032L86.3989 71.1826C86.0812 70.9509 85.4374 70.4359 84.9652 70.0497ZM126.173 44.3104C123.907 44.1044 122.662 43.8812 122.078 43.5637C120.464 42.6797 118.172 39.6328 116.927 36.689C116.446 35.5647 116.086 34.2601 116.086 33.6851C116.086 32.5608 117.683 28.7672 119.305 26.0294C120.061 24.7591 120.395 24.2528 121.391 22.9224L122.207 21.8325L122.473 22.0127C124.843 23.6777 127.555 26.4242 129.444 29.0676C131.135 31.4536 132.646 34.4661 133.556 37.2726C134.192 39.2552 134.732 41.7871 134.853 43.4092L134.913 44.1216L134.32 44.1902C133.994 44.2246 133.419 44.2761 133.041 44.3104C131.968 44.4048 127.221 44.4048 126.173 44.3104ZM75.4788 44.1044C74.8435 44.0186 74.2855 43.9242 74.2425 43.8812C74.0966 43.7353 74.5001 41.0919 74.9637 39.2466C76.6034 32.6294 80.5439 26.6731 86.0469 22.4418L86.9655 21.738L87.3175 22.2101C89.6869 25.3428 92.7432 31.1704 92.9578 32.9384C93.2497 35.4102 89.9788 41.5811 87.4978 43.2461C86.9998 43.5809 85.197 43.9585 82.9906 44.1816C81.4453 44.3447 77.0498 44.2932 75.4788 44.1044ZM101.903 30.9644C99.7743 30.6897 98.9072 30.3293 98.0487 29.3594C95.7394 26.7761 93.5244 23.1971 92.1423 19.8241L91.7989 18.9916L92.1251 18.8199C92.6574 18.5539 94.0739 18.0046 95.0955 17.6785C100.229 16.022 105.475 15.7474 110.849 16.8459C112.781 17.2407 115.09 17.9789 116.713 18.717C117.339 19.0002 117.382 19.0345 117.331 19.2405C117.245 19.6181 115.794 22.5191 115.056 23.815C113.519 26.4842 111.459 29.3251 110.652 29.8658C109.939 30.3464 108.617 30.7498 107.106 30.9558C105.921 31.1189 103.105 31.1275 101.903 30.9644Z" fill="#B37D4E"/>
<path d="M39.4575 82.3345C39.4575 83.3403 39.2396 84.0444 38.8037 84.4468C38.4014 84.8156 37.6973 85 36.6914 85H25.979C24.9731 85 24.2523 84.8156 23.8164 84.4468C23.4141 84.0444 23.2129 83.3403 23.2129 82.3345V26.1069H8.22559C7.4209 26.1069 6.81738 25.9728 6.41504 25.7046C5.54329 25.1011 4.63802 24.3802 3.69922 23.542C2.79395 22.7038 1.80485 21.6979 0.731934 20.5244C0.396647 20.0885 0.229004 19.7365 0.229004 19.4683C0.229004 19.1665 0.396647 18.8312 0.731934 18.4624C1.80485 17.2889 2.79395 16.283 3.69922 15.4448C4.63802 14.6066 5.54329 13.8857 6.41504 13.2822C6.88444 13.014 7.48796 12.8799 8.22559 12.8799H54.4951C55.2998 12.8799 55.9033 13.014 56.3057 13.2822C57.1774 13.8857 58.0827 14.6066 59.0215 15.4448C59.9603 16.283 60.9494 17.2889 61.9888 18.4624C62.3241 18.8983 62.4917 19.2503 62.4917 19.5186C62.4917 19.8203 62.3241 20.1556 61.9888 20.5244C60.9494 21.6979 59.9603 22.7038 59.0215 23.542C58.0827 24.3802 57.1774 25.1011 56.3057 25.7046C55.8363 25.9728 55.2327 26.1069 54.4951 26.1069H39.4575V82.3345ZM257.578 82.3345C257.578 83.3403 257.36 84.0444 256.924 84.4468C256.522 84.8156 255.818 85 254.812 85H244.1C243.094 85 242.373 84.8156 241.937 84.4468C241.535 84.0444 241.333 83.3403 241.333 82.3345V26.3584C241.333 23.0055 241.635 20.3568 242.239 18.4121C242.876 16.4339 244.083 15.0257 245.86 14.1875C247.67 13.3158 250.302 12.8799 253.756 12.8799H267.083C284.585 12.8799 293.336 19.6024 293.336 33.0474C293.336 37.1379 292.649 40.4907 291.274 43.106C289.9 45.7212 288.19 47.7664 286.145 49.2417C284.099 50.6834 282.088 51.7731 280.109 52.5107V52.7622C282.356 54.2375 284.485 56.1821 286.497 58.5962C288.542 60.9767 290.386 63.5752 292.029 66.3916C293.672 69.1745 295.063 71.9406 296.203 74.6899C297.343 77.4058 298.131 79.8366 298.567 81.9824C298.768 82.9883 298.768 83.7427 298.567 84.2456C298.399 84.7485 297.829 85 296.857 85H285.239C284.368 85 283.596 84.8156 282.926 84.4468C282.289 84.078 281.702 83.223 281.166 81.8818C278.617 75.4779 275.684 70.2642 272.364 66.2407C269.045 62.1838 265.843 58.9315 262.758 56.4839C260.78 54.908 259.791 53.7848 259.791 53.1143C259.791 52.5778 260.11 51.8402 260.747 50.9014C261.149 50.3314 261.736 49.644 262.507 48.8394C263.278 48.0347 263.949 47.4312 264.519 47.0288C265.089 46.6265 265.541 46.375 265.876 46.2744C266.245 46.1738 266.799 46.1235 267.536 46.1235C270.017 46.1235 272.079 45.2686 273.722 43.5586C275.399 41.8486 276.237 39.1496 276.237 35.4614C276.237 31.9744 275.348 29.4263 273.571 27.8169C271.828 26.174 269.414 25.3525 266.329 25.3525H263.312C261.099 25.3525 259.59 25.8219 258.785 26.7607C257.98 27.6995 257.578 29.3089 257.578 31.5889V82.3345ZM324.77 82.3345C324.77 83.3403 324.552 84.0444 324.116 84.4468C323.713 84.8156 323.009 85 322.003 85H311.291C310.285 85 309.564 84.8156 309.128 84.4468C308.726 84.0444 308.525 83.3403 308.525 82.3345V20.9268C308.525 19.9544 308.693 19.2168 309.028 18.7139C310.537 16.501 312.649 14.1707 315.365 11.7231C315.868 11.3208 316.304 11.1196 316.672 11.1196C317.075 11.1196 317.494 11.3208 317.93 11.7231C319.405 12.9972 320.646 14.221 321.651 15.3945C322.657 16.5345 323.529 17.641 324.267 18.7139C324.602 19.2503 324.77 19.988 324.77 20.9268V82.3345ZM360.427 86.207C356.169 86.207 352.632 85.8215 349.815 85.0503C347.033 84.2791 344.786 83.3236 343.076 82.1836C341.4 81.0101 340.109 79.8534 339.204 78.7134C338.902 78.2775 338.634 77.8584 338.399 77.4561C338.164 77.0537 337.997 76.6011 337.896 76.0981C337.762 75.4276 337.628 74.5558 337.494 73.4829C337.36 72.3765 337.343 71.1024 337.443 69.6606C337.477 69.0571 337.594 68.638 337.795 68.4033C338.03 68.1351 338.416 67.9339 338.952 67.7998C339.924 67.5651 341.182 67.3639 342.724 67.1963C344.3 66.9951 345.423 66.8945 346.094 66.8945C346.798 66.8945 347.368 67.0286 347.804 67.2969C348.24 67.5651 348.759 68.0177 349.363 68.6548C350.033 69.3589 351.19 70.2642 352.833 71.3706C354.476 72.4435 357.007 72.98 360.427 72.98C363.713 72.98 366.194 72.2926 367.871 70.918C369.547 69.5433 370.385 67.6322 370.385 65.1846C370.385 63.877 369.983 62.6532 369.178 61.5132C368.407 60.3397 366.982 59.1829 364.903 58.043C362.825 56.8695 359.857 55.6457 356.001 54.3716C349.631 52.2257 345.038 49.5602 342.221 46.375C339.405 43.1898 337.997 38.764 337.997 33.0977C337.997 28.4036 339.137 24.4808 341.417 21.3291C343.696 18.1774 346.848 15.7969 350.872 14.1875C354.895 12.5781 359.539 11.7734 364.803 11.7734C368.86 11.7734 372.213 12.2596 374.861 13.2319C377.544 14.1707 379.622 15.2437 381.098 16.4507C382.573 17.6242 383.528 18.5798 383.964 19.3174C384.233 19.7533 384.4 20.0885 384.467 20.3232C384.568 20.5244 384.635 20.8094 384.668 21.1782C384.769 22.2176 384.803 23.3743 384.769 24.6484C384.736 25.9225 384.618 27.3643 384.417 28.9736C384.316 29.5101 384.132 29.8789 383.864 30.0801C383.629 30.2477 383.26 30.3315 382.757 30.3315C379.505 30.3986 376.99 30.231 375.213 29.8286C374.509 29.661 374.04 29.4933 373.805 29.3257C373.57 29.158 373.269 28.8898 372.9 28.521C372.363 27.884 371.508 27.1463 370.335 26.3081C369.195 25.4364 367.351 25.0005 364.803 25.0005C361.282 25.0005 358.784 25.8052 357.309 27.4146C355.834 28.9904 355.096 30.7674 355.096 32.7456C355.096 35.0926 356.186 36.9367 358.365 38.2778C360.545 39.5854 363.981 41.0775 368.675 42.7539C372.598 44.1286 375.968 45.6206 378.784 47.23C381.601 48.8394 383.746 50.9014 385.222 53.416C386.73 55.9307 387.485 59.25 387.485 63.374C387.485 68.5039 386.295 72.762 383.914 76.1484C381.567 79.5348 378.348 82.0662 374.258 83.7427C370.201 85.3856 365.591 86.207 360.427 86.207ZM430.737 82.3345C430.737 83.3403 430.519 84.0444 430.083 84.4468C429.681 84.8156 428.977 85 427.971 85H417.258C416.252 85 415.532 84.8156 415.096 84.4468C414.693 84.0444 414.492 83.3403 414.492 82.3345V26.1069H399.505C398.7 26.1069 398.097 25.9728 397.694 25.7046C396.823 25.1011 395.917 24.3802 394.979 23.542C394.073 22.7038 393.084 21.6979 392.011 20.5244C391.676 20.0885 391.508 19.7365 391.508 19.4683C391.508 19.1665 391.676 18.8312 392.011 18.4624C393.084 17.2889 394.073 16.283 394.979 15.4448C395.917 14.6066 396.823 13.8857 397.694 13.2822C398.164 13.014 398.767 12.8799 399.505 12.8799H445.774C446.579 12.8799 447.183 13.014 447.585 13.2822C448.457 13.8857 449.362 14.6066 450.301 15.4448C451.24 16.283 452.229 17.2889 453.268 18.4624C453.603 18.8983 453.771 19.2503 453.771 19.5186C453.771 19.8203 453.603 20.1556 453.268 20.5244C452.229 21.6979 451.24 22.7038 450.301 23.542C449.362 24.3802 448.457 25.1011 447.585 25.7046C447.116 25.9728 446.512 26.1069 445.774 26.1069H430.737V82.3345Z" fill="#24333A"/>
</svg>
