<svg width="200" height="193" viewBox="0 0 200 193" fill="none" xmlns="http://www.w3.org/2000/svg">
<g clip-path="url(#clip0_909_26)">
<path d="M92.245 0.521488C73.1806 2.02336 55.6241 8.46891 40.3295 19.6078C27.8353 28.7025 17.4306 40.9887 10.6881 54.5473C-1.18142 78.473 -2.38776 105.736 7.30601 130.58C14.7379 149.603 28.6108 166.124 46.6196 177.367C57.369 184.084 70.2509 188.923 83.0898 191.072C98.0613 193.554 112.731 192.782 127.573 188.694C154.371 181.331 177.356 162.515 189.506 137.985C195.473 125.97 198.532 114.143 199.2 100.605C200.32 78.2435 193.297 56.4246 179.123 38.2352C168.072 24.0509 152.153 12.5782 134.79 6.29954C121.348 1.4393 106.484 -0.584059 92.245 0.521488ZM108.66 22.6116C114.325 23.2791 119.043 24.3012 124.45 26.0534C127.94 27.2006 132.033 28.8277 132.14 29.1406C132.313 29.6412 128.5 37.0671 125.721 41.6353C122.856 46.3495 118.871 51.7938 116.738 53.9632C115.144 55.5694 112.667 56.6332 108.724 57.3633C100.926 58.8443 89.9831 58.1351 85.9548 55.9031C84.3392 55.0062 80.3109 50.3754 77.1012 45.7446C74.0638 41.3641 71.4142 36.7125 69.4539 32.332C67.8598 28.7651 67.8813 28.8694 68.5922 28.6191C68.9153 28.4939 70.1647 28.0141 71.3495 27.5344C78.7599 24.6141 85.9764 23.0288 95.584 22.2361C97.5873 22.0692 106.139 22.3195 108.66 22.6116ZM58.5753 38.5273C63.5084 45.4734 67.9244 53.4209 70.2724 59.6161C71.0695 61.7438 71.091 61.8063 70.9618 63.9966C70.8756 65.8739 70.7033 66.6457 69.9493 68.8985C67.4074 76.3453 61.3326 85.1688 56.9381 87.818C55.9688 88.3812 51.0142 89.3616 46.9428 89.7996C39.7263 90.5506 29.6017 90.3628 24.4101 89.3616L23.807 89.2364L23.9578 87.8388C24.2163 85.44 25.121 80.6632 25.7888 78.0975C30.1618 61.6186 39.9202 47.3925 53.8577 37.1506C55.1286 36.2119 56.2703 35.5027 56.3565 35.5444C56.4642 35.607 57.4551 36.9628 58.5753 38.5273ZM149.115 39.4451C151.829 41.6145 156.332 45.9949 158.68 48.7066C164.948 55.9866 169.881 64.6224 172.811 73.4042C174.319 77.9932 175.633 83.8756 176.064 88.0474C176.172 89.299 176.15 89.4659 175.805 89.5702C173.587 90.196 158.055 90.4671 152.885 89.9456C145.69 89.2156 144.031 88.6732 141.166 86.1284C135.587 81.143 129.426 70.3378 129.038 64.8518C128.887 62.9745 129.211 61.8272 131.063 57.259C133.777 50.6257 138.366 42.7826 142.696 37.4009L144.074 35.6695L145.518 36.6916C146.315 37.2549 147.93 38.5064 149.115 39.4451ZM45.7149 102.002C51.4019 102.503 54.5255 103.045 55.9903 103.817C60.0401 105.966 65.7918 113.371 68.9153 120.525C70.1217 123.258 71.0264 126.429 71.0264 127.826C71.0264 130.559 67.0196 139.779 62.9483 146.433C61.0526 149.52 60.2125 150.751 57.7136 153.984L55.6672 156.633L54.9994 156.195C49.0539 152.148 42.2467 145.473 37.5075 139.049C33.2638 133.25 29.4724 125.928 27.189 119.107C25.5949 114.289 24.2378 108.135 23.9362 104.193L23.7854 102.461L25.2718 102.294C26.0904 102.211 27.5337 102.086 28.4815 102.002C31.1742 101.773 43.0868 101.773 45.7149 102.002ZM172.919 102.503C174.513 102.712 175.913 102.941 176.021 103.045C176.387 103.4 175.374 109.825 174.211 114.309C170.097 130.392 160.209 144.868 146.401 155.152L144.096 156.863L143.213 155.715C137.267 148.102 129.598 133.938 129.06 129.641C128.327 123.634 136.535 108.636 142.76 104.589C144.01 103.775 148.533 102.858 154.07 102.315C157.947 101.919 168.977 102.044 172.919 102.503ZM106.613 134.439C111.956 135.106 114.131 135.982 116.286 138.339C122.08 144.618 127.638 153.316 131.106 161.514L131.968 163.538L131.149 163.955C129.814 164.601 126.259 165.936 123.696 166.729C110.814 170.755 97.652 171.422 84.1669 168.752C79.32 167.793 73.5252 165.999 69.4539 164.205C67.8813 163.517 67.7736 163.433 67.9029 162.933C68.1183 162.015 71.7588 154.964 73.6114 151.815C77.4674 145.327 82.6374 138.423 84.6623 137.109C86.4503 135.941 89.7677 134.96 93.559 134.46C96.5318 134.063 103.597 134.042 106.613 134.439Z" fill="#24333A"/>
</g>
<defs>
<clipPath id="clip0_909_26">
<rect width="200" height="193" fill="white"/>
</clipPath>
</defs>
</svg>
