<svg width="444" height="79" viewBox="0 0 444 79" fill="none" xmlns="http://www.w3.org/2000/svg">
<path d="M99.1402 0.120769C91.8244 0.736481 85.0872 3.37891 79.218 7.94544C74.4235 11.6739 70.4308 16.7108 67.8433 22.2693C63.2885 32.0779 62.8256 43.2548 66.5455 53.4397C69.3974 61.2387 74.7211 68.0115 81.6318 72.6208C85.7568 75.3744 90.7002 77.3584 95.627 78.2392C101.372 79.2568 107.002 78.9404 112.697 77.2643C122.981 74.2456 131.801 66.5321 136.463 56.4755C138.753 51.5498 139.927 46.7011 140.183 41.1511C140.613 31.9839 137.918 23.0389 132.479 15.582C128.238 9.76692 122.129 5.06357 115.467 2.48955C110.308 0.497037 104.604 -0.332463 99.1402 0.120769ZM105.439 9.17686C107.613 9.45051 109.424 9.86954 111.499 10.5879C112.838 11.0582 114.408 11.7252 114.45 11.8535C114.516 12.0587 113.053 15.1031 111.986 16.9759C110.887 18.9085 109.358 21.1405 108.539 22.0298C107.928 22.6883 106.977 23.1244 105.464 23.4238C102.472 24.0309 98.2723 23.7402 96.7264 22.8251C96.1064 22.4574 94.5606 20.559 93.3289 18.6605C92.1633 16.8647 91.1466 14.9577 90.3943 13.1619C89.7826 11.6996 89.7908 11.7423 90.0636 11.6397C90.1876 11.5884 90.6671 11.3917 91.1218 11.195C93.9654 9.99781 96.7347 9.34789 100.422 9.02294C101.19 8.95452 104.472 9.05714 105.439 9.17686ZM86.2197 15.7017C88.1128 18.5494 89.8074 21.8075 90.7084 24.3473C91.0143 25.2196 91.0226 25.2452 90.973 26.1431C90.9399 26.9128 90.8738 27.2292 90.5844 28.1528C89.609 31.2057 87.2778 34.823 85.5915 35.909C85.2195 36.1399 83.3182 36.5418 81.7558 36.7214C78.9866 37.0293 75.1013 36.9523 73.1091 36.5418L72.8776 36.4905L72.9355 35.9176C73.0347 34.9341 73.3819 32.9758 73.6381 31.924C75.3162 25.1683 79.061 19.3361 84.4094 15.1373C84.8971 14.7525 85.3352 14.4617 85.3683 14.4788C85.4096 14.5045 85.7899 15.0603 86.2197 15.7017ZM120.964 16.078C122.005 16.9673 123.733 18.7632 124.634 19.8749C127.04 22.8593 128.933 26.3997 130.057 29.9999C130.636 31.8812 131.14 34.2928 131.305 36.0031C131.346 36.5162 131.338 36.5846 131.206 36.6273C130.354 36.8839 124.394 36.9951 122.41 36.7813C119.649 36.482 119.013 36.2596 117.913 35.2163C115.772 33.1725 113.408 28.7428 113.259 26.4938C113.202 25.7241 113.326 25.2538 114.036 23.381C115.078 20.6616 116.839 17.4462 118.5 15.2399L119.029 14.5301L119.583 14.9492C119.889 15.1801 120.509 15.6931 120.964 16.078ZM81.2846 41.7241C83.467 41.9293 84.6656 42.1517 85.2278 42.4681C86.7819 43.3489 88.989 46.3847 90.1876 49.3179C90.6506 50.4381 90.9978 51.7379 90.9978 52.3109C90.9978 53.4311 89.4602 57.2109 87.8978 59.9389C87.1704 61.2045 86.848 61.7091 85.8891 63.0345L85.1038 64.1206L84.8475 63.941C82.5659 62.282 79.9537 59.5455 78.1351 56.9116C76.5066 54.5343 75.0517 51.5327 74.1755 48.7363C73.5638 46.7609 73.043 44.2382 72.9272 42.622L72.8694 41.9122L73.4398 41.8438C73.7539 41.8096 74.3077 41.7583 74.6715 41.7241C75.7048 41.63 80.2761 41.63 81.2846 41.7241ZM130.098 41.9293C130.71 42.0148 131.247 42.1089 131.289 42.1517C131.429 42.297 131.041 44.9309 130.594 46.7695C129.015 53.3627 125.221 59.2975 119.922 63.5134L119.038 64.2147L118.699 63.7443C116.417 60.623 113.474 54.8165 113.268 53.0549C112.987 50.592 116.136 44.4435 118.525 42.7845C119.005 42.451 120.741 42.0747 122.865 41.8523C124.353 41.6899 128.585 41.7412 130.098 41.9293ZM104.654 55.0217C106.704 55.2954 107.539 55.6546 108.366 56.6209C110.589 59.1949 112.722 62.7609 114.053 66.1217L114.384 66.9512L114.069 67.1222C113.557 67.3873 112.193 67.9346 111.209 68.2595C106.266 69.91 101.215 70.1836 96.0403 69.089C94.1803 68.6957 91.9567 67.9602 90.3943 67.2248C89.7908 66.9426 89.7495 66.9084 89.7991 66.7032C89.8818 66.3269 91.2788 63.4365 91.9897 62.1452C93.4694 59.4856 95.4534 56.6551 96.2304 56.1163C96.9166 55.6374 98.1896 55.2355 99.6445 55.0303C100.785 54.8678 103.497 54.8593 104.654 55.0217Z" fill="#FF9D47"/>
<path d="M169.749 0.120769C162.433 0.736481 155.696 3.37891 149.827 7.94544C145.032 11.6739 141.039 16.7108 138.452 22.2693C133.897 32.0779 133.434 43.2548 137.154 53.4397C140.006 61.2387 145.33 68.0115 152.24 72.6208C156.365 75.3744 161.309 77.3584 166.236 78.2392C171.981 79.2568 177.61 78.9404 183.306 77.2643C193.589 74.2456 202.41 66.5321 207.072 56.4755C209.362 51.5498 210.536 46.7011 210.792 41.1511C211.222 31.9839 208.527 23.0389 203.088 15.582C198.847 9.76692 192.738 5.06357 186.075 2.48955C180.917 0.497037 175.213 -0.332463 169.749 0.120769ZM176.048 9.17686C178.222 9.45051 180.032 9.86954 182.107 10.5879C183.446 11.0582 185.017 11.7252 185.058 11.8535C185.124 12.0587 183.661 15.1031 182.595 16.9759C181.495 18.9085 179.966 21.1405 179.148 22.0298C178.536 22.6883 177.585 23.1244 176.073 23.4238C173.08 24.0309 168.881 23.7402 167.335 22.8251C166.715 22.4574 165.169 20.559 163.937 18.6605C162.772 16.8647 161.755 14.9577 161.003 13.1619C160.391 11.6996 160.399 11.7423 160.672 11.6397C160.796 11.5884 161.276 11.3917 161.73 11.195C164.574 9.99781 167.343 9.34789 171.03 9.02294C171.799 8.95452 175.081 9.05714 176.048 9.17686ZM156.828 15.7017C158.721 18.5494 160.416 21.8075 161.317 24.3473C161.623 25.2196 161.631 25.2452 161.582 26.1431C161.548 26.9128 161.482 27.2292 161.193 28.1528C160.218 31.2057 157.886 34.823 156.2 35.909C155.828 36.1399 153.927 36.5418 152.364 36.7214C149.595 37.0293 145.71 36.9523 143.718 36.5418L143.486 36.4905L143.544 35.9176C143.643 34.9341 143.99 32.9758 144.247 31.924C145.925 25.1683 149.67 19.3361 155.018 15.1373C155.506 14.7525 155.944 14.4617 155.977 14.4788C156.018 14.5045 156.398 15.0603 156.828 15.7017ZM191.572 16.078C192.614 16.9673 194.342 18.7632 195.243 19.8749C197.648 22.8593 199.541 26.3997 200.665 29.9999C201.244 31.8812 201.748 34.2928 201.914 36.0031C201.955 36.5162 201.947 36.5846 201.814 36.6273C200.963 36.8839 195.003 36.9951 193.019 36.7813C190.258 36.482 189.621 36.2596 188.522 35.2163C186.381 33.1725 184.017 28.7428 183.868 26.4938C183.81 25.7241 183.934 25.2538 184.645 23.381C185.687 20.6616 187.447 17.4462 189.109 15.2399L189.638 14.5301L190.192 14.9492C190.498 15.1801 191.118 15.6931 191.572 16.078ZM151.893 41.7241C154.076 41.9293 155.274 42.1517 155.836 42.4681C157.39 43.3489 159.598 46.3847 160.796 49.3179C161.259 50.4381 161.606 51.7379 161.606 52.3109C161.606 53.4311 160.069 57.2109 158.506 59.9389C157.779 61.2045 157.457 61.7091 156.498 63.0345L155.712 64.1206L155.456 63.941C153.175 62.282 150.562 59.5455 148.744 56.9116C147.115 54.5343 145.66 51.5327 144.784 48.7363C144.172 46.7609 143.652 44.2382 143.536 42.622L143.478 41.9122L144.048 41.8438C144.362 41.8096 144.916 41.7583 145.28 41.7241C146.313 41.63 150.885 41.63 151.893 41.7241ZM200.707 41.9293C201.318 42.0148 201.856 42.1089 201.897 42.1517C202.038 42.297 201.649 44.9309 201.203 46.7695C199.624 53.3627 195.83 59.2975 190.531 63.5134L189.646 64.2147L189.307 63.7443C187.026 60.623 184.083 54.8165 183.876 53.0549C183.595 50.592 186.745 44.4435 189.134 42.7845C189.613 42.451 191.349 42.0747 193.474 41.8523C194.962 41.6899 199.194 41.7412 200.707 41.9293ZM175.263 55.0217C177.313 55.2954 178.148 55.6546 178.974 56.6209C181.198 59.1949 183.331 62.7609 184.662 66.1217L184.992 66.9512L184.678 67.1222C184.166 67.3873 182.802 67.9346 181.818 68.2595C176.875 69.91 171.824 70.1836 166.649 69.089C164.789 68.6957 162.565 67.9602 161.003 67.2248C160.399 66.9426 160.358 66.9084 160.408 66.7032C160.49 66.3269 161.887 63.4365 162.598 62.1452C164.078 59.4856 166.062 56.6551 166.839 56.1163C167.525 55.6374 168.798 55.2355 170.253 55.0303C171.394 54.8678 174.105 54.8593 175.263 55.0217Z" fill="#FF9D47"/>
<path d="M39.6904 73.2436C39.6904 74.2495 39.4725 74.9536 39.0366 75.3559C38.6343 75.7247 37.9302 75.9091 36.9243 75.9091H26.2119C25.2061 75.9091 24.4852 75.7247 24.0493 75.3559C23.647 74.9536 23.4458 74.2495 23.4458 73.2436V17.0161H8.4585C7.65381 17.0161 7.05029 16.8819 6.64795 16.6137C5.7762 16.0102 4.87093 15.2893 3.93213 14.4511C3.02686 13.6129 2.03776 12.607 0.964844 11.4335C0.629557 10.9977 0.461914 10.6456 0.461914 10.3774C0.461914 10.0756 0.629557 9.74034 0.964844 9.37152C2.03776 8.19802 3.02686 7.19216 3.93213 6.35394C4.87093 5.51573 5.7762 4.79486 6.64795 4.19135C7.11735 3.92312 7.72087 3.789 8.4585 3.789H54.728C55.5327 3.789 56.1362 3.92312 56.5386 4.19135C57.4103 4.79486 58.3156 5.51573 59.2544 6.35394C60.1932 7.19216 61.1823 8.19802 62.2217 9.37152C62.557 9.80739 62.7246 10.1594 62.7246 10.4277C62.7246 10.7294 62.557 11.0647 62.2217 11.4335C61.1823 12.607 60.1932 13.6129 59.2544 14.4511C58.3156 15.2893 57.4103 16.0102 56.5386 16.6137C56.0692 16.8819 55.4657 17.0161 54.728 17.0161H39.6904V73.2436ZM241.345 73.2436C241.345 74.2495 241.127 74.9536 240.691 75.3559C240.289 75.7247 239.585 75.9091 238.579 75.9091H227.867C226.861 75.9091 226.14 75.7247 225.704 75.3559C225.302 74.9536 225.101 74.2495 225.101 73.2436V17.2675C225.101 13.9147 225.402 11.2659 226.006 9.32123C226.643 7.34304 227.85 5.93483 229.627 5.09662C231.438 4.22487 234.069 3.789 237.523 3.789H250.851C268.353 3.789 277.104 10.5115 277.104 23.9565C277.104 28.047 276.416 31.3998 275.042 34.0151C273.667 36.6303 271.957 38.6756 269.912 40.1508C267.866 41.5925 265.855 42.6822 263.876 43.4199V43.6713C266.123 45.1466 268.252 47.0912 270.264 49.5053C272.309 51.8858 274.153 54.4843 275.796 57.3007C277.439 60.0836 278.83 62.8497 279.97 65.5991C281.11 68.3149 281.898 70.7457 282.334 72.8915C282.535 73.8974 282.535 74.6518 282.334 75.1547C282.166 75.6577 281.596 75.9091 280.624 75.9091H269.006C268.135 75.9091 267.363 75.7247 266.693 75.3559C266.056 74.9871 265.469 74.1321 264.933 72.791C262.384 66.387 259.451 61.1733 256.131 57.1498C252.812 53.0929 249.61 49.8406 246.525 47.393C244.547 45.8172 243.558 44.6939 243.558 44.0234C243.558 43.4869 243.877 42.7493 244.514 41.8105C244.916 41.2405 245.503 40.5532 246.274 39.7485C247.045 38.9438 247.716 38.3403 248.286 37.9379C248.856 37.5356 249.308 37.2841 249.644 37.1835C250.012 37.0829 250.566 37.0327 251.303 37.0327C253.784 37.0327 255.846 36.1777 257.489 34.4677C259.166 32.7578 260.004 30.0587 260.004 26.3705C260.004 22.8836 259.115 20.3354 257.338 18.726C255.595 17.0831 253.181 16.2617 250.096 16.2617H247.079C244.866 16.2617 243.357 16.7311 242.552 17.6699C241.748 18.6087 241.345 20.218 241.345 22.498V73.2436ZM310.537 73.2436C310.537 74.2495 310.319 74.9536 309.883 75.3559C309.48 75.7247 308.776 75.9091 307.771 75.9091H297.058C296.052 75.9091 295.331 75.7247 294.896 75.3559C294.493 74.9536 294.292 74.2495 294.292 73.2436V11.8359C294.292 10.8635 294.46 10.1259 294.795 9.62299C296.304 7.4101 298.416 5.07985 301.132 2.63226C301.635 2.22992 302.071 2.02875 302.439 2.02875C302.842 2.02875 303.261 2.22992 303.697 2.63226C305.172 3.90635 306.413 5.13015 307.418 6.30365C308.424 7.44362 309.296 8.55007 310.034 9.62299C310.369 10.1594 310.537 10.8971 310.537 11.8359V73.2436ZM348.194 77.1161C343.936 77.1161 340.399 76.7306 337.583 75.9594C334.8 75.1883 332.553 74.2327 330.843 73.0927C329.167 71.9192 327.876 70.7625 326.971 69.6225C326.669 69.1866 326.401 68.7675 326.166 68.3652C325.931 67.9628 325.764 67.5102 325.663 67.0073C325.529 66.3367 325.395 65.4649 325.261 64.392C325.127 63.2856 325.11 62.0115 325.21 60.5698C325.244 59.9662 325.361 59.5471 325.562 59.3124C325.797 59.0442 326.183 58.843 326.719 58.7089C327.692 58.4742 328.949 58.2731 330.491 58.1054C332.067 57.9042 333.19 57.8036 333.861 57.8036C334.565 57.8036 335.135 57.9378 335.571 58.206C336.007 58.4742 336.526 58.9269 337.13 59.5639C337.8 60.268 338.957 61.1733 340.6 62.2797C342.243 63.3526 344.774 63.8891 348.194 63.8891C351.48 63.8891 353.961 63.2018 355.638 61.8271C357.314 60.4524 358.152 58.5413 358.152 56.0937C358.152 54.7861 357.75 53.5623 356.945 52.4223C356.174 51.2488 354.749 50.0921 352.67 48.9521C350.592 47.7786 347.624 46.5548 343.769 45.2807C337.398 43.1349 332.805 40.4693 329.988 37.2841C327.172 34.0989 325.764 29.6731 325.764 24.0068C325.764 19.3128 326.904 15.3899 329.184 12.2382C331.464 9.08653 334.615 6.70599 338.639 5.09662C342.662 3.48724 347.306 2.68256 352.57 2.68256C356.627 2.68256 359.98 3.16872 362.628 4.14105C365.311 5.07985 367.389 6.15277 368.865 7.3598C370.34 8.5333 371.296 9.48887 371.731 10.2265C372 10.6624 372.167 10.9977 372.234 11.2324C372.335 11.4335 372.402 11.7185 372.436 12.0873C372.536 13.1267 372.57 14.2835 372.536 15.5576C372.503 16.8316 372.385 18.2734 372.184 19.8828C372.083 20.4192 371.899 20.788 371.631 20.9892C371.396 21.1568 371.027 21.2407 370.524 21.2407C367.272 21.3077 364.757 21.1401 362.98 20.7377C362.276 20.5701 361.807 20.4024 361.572 20.2348C361.338 20.0672 361.036 19.7989 360.667 19.4301C360.131 18.7931 359.276 18.0554 358.102 17.2172C356.962 16.3455 355.118 15.9096 352.57 15.9096C349.049 15.9096 346.551 16.7143 345.076 18.3237C343.601 19.8995 342.863 21.6765 342.863 23.6547C342.863 26.0017 343.953 27.8458 346.132 29.187C348.312 30.4946 351.748 31.9866 356.442 33.663C360.365 35.0377 363.735 36.5297 366.551 38.1391C369.368 39.7485 371.514 41.8105 372.989 44.3251C374.498 46.8398 375.252 50.1591 375.252 54.2831C375.252 59.413 374.062 63.6712 371.681 67.0576C369.334 70.4439 366.115 72.9754 362.025 74.6518C357.968 76.2947 353.358 77.1161 348.194 77.1161ZM420.504 73.2436C420.504 74.2495 420.286 74.9536 419.85 75.3559C419.448 75.7247 418.744 75.9091 417.738 75.9091H407.025C406.02 75.9091 405.299 75.7247 404.863 75.3559C404.46 74.9536 404.259 74.2495 404.259 73.2436V17.0161H389.272C388.467 17.0161 387.864 16.8819 387.461 16.6137C386.59 16.0102 385.684 15.2893 384.746 14.4511C383.84 13.6129 382.851 12.607 381.778 11.4335C381.443 10.9977 381.275 10.6456 381.275 10.3774C381.275 10.0756 381.443 9.74034 381.778 9.37152C382.851 8.19802 383.84 7.19216 384.746 6.35394C385.684 5.51573 386.59 4.79486 387.461 4.19135C387.931 3.92312 388.534 3.789 389.272 3.789H435.542C436.346 3.789 436.95 3.92312 437.352 4.19135C438.224 4.79486 439.129 5.51573 440.068 6.35394C441.007 7.19216 441.996 8.19802 443.035 9.37152C443.37 9.80739 443.538 10.1594 443.538 10.4277C443.538 10.7294 443.37 11.0647 443.035 11.4335C441.996 12.607 441.007 13.6129 440.068 14.4511C439.129 15.2893 438.224 16.0102 437.352 16.6137C436.883 16.8819 436.279 17.0161 435.542 17.0161H420.504V73.2436Z" fill="#212E35"/>
</svg>
